{
  "asset": {
    "version": "2.0",
    "generator": "mdams-test-model-generator"
  },
  "extensionsUsed": [
    "KHR_materials_unlit"
  ],
  "buffers": [
    {
      "byteLength": 8512
    }
  ],
  "bufferViews": [
    {
      "buffer": 0,
      "byteOffset": 0,
      "byteLength": 2328,
      "target": 34962
    },
    {
      "buffer": 0,
      "byteOffset": 2328,
      "byteLength": 2328,
      "target": 34962
    },
    {
      "buffer": 0,
      "byteOffset": 4656,
      "byteLength": 1552,
      "target": 34962
    },
    {
      "buffer": 0,
      "byteOffset": 6208,
      "byteLength": 2304,
      "target": 34963
    }
  ],
  "accessors": [
    {
      "bufferView": 0,
      "componentType": 5126,
      "count": 194,
      "type": "VEC3",
      "max": [
        0.55,
        1.0,
        0.55
      ],
      "min": [
        -0.55,
        0.0,
        -0.55
      ]
    },
    {
      "bufferView": 1,
      "componentType": 5126,
      "count": 194,
      "type": "VEC3"
    },
    {
      "bufferView": 2,
      "componentType": 5126,
      "count": 194,
      "type": "VEC2"
    },
    {
      "bufferView": 3,
      "componentType": 5123,
      "count": 1152,
      "type": "SCALAR"
    }
  ],
  "images": [
    {
      "uri": "museum-vase-texture.png"
    }
  ],
  "samplers": [
    {
      "magFilter": 9729,
      "minFilter": 9987,
      "wrapS": 10497,
      "wrapT": 10497
    }
  ],
  "textures": [
    {
      "sampler": 0,
      "source": 0
    }
  ],
  "materials": [
    {
      "doubleSided": true,
      "pbrMetallicRoughness": {
        "baseColorTexture": {
          "index": 0
        },
        "metallicFactor": 0.0,
        "roughnessFactor": 1.0
      },
      "extensions": {
        "KHR_materials_unlit": {}
      }
    }
  ],
  "meshes": [
    {
      "primitives": [
        {
          "attributes": {
            "POSITION": 0,
            "NORMAL": 1,
            "TEXCOORD_0": 2
          },
          "indices": 3,
          "material": 0
        }
      ]
    }
  ],
  "nodes": [
    {
      "mesh": 0
    }
  ],
  "scenes": [
    {
      "nodes": [
        0
      ]
    }
  ],
  "scene": 0
}